<svg width="84" height="60" viewBox="0 0 84 60" fill="none" xmlns="http://www.w3.org/2000/svg">
<path d="M79.5 0.833374H4.50004C3.39497 0.833374 2.33516 1.27236 1.55376 2.05376C0.772361 2.83516 0.333374 3.89497 0.333374 5.00004V21.6667H4.05421C8.20421 21.6667 12.0542 24.5042 12.7209 28.6C12.924 29.796 12.8636 31.0219 12.5441 32.1922C12.2245 33.3625 11.6534 34.4489 10.8706 35.3757C10.0879 36.3025 9.1123 37.0473 8.01199 37.5581C6.91168 38.0689 5.71315 38.3335 4.50004 38.3334H0.333374V55C0.333374 56.1051 0.772361 57.1649 1.55376 57.9463C2.33516 58.7277 3.39497 59.1667 4.50004 59.1667H79.5C80.6051 59.1667 81.6649 58.7277 82.4463 57.9463C83.2277 57.1649 83.6667 56.1051 83.6667 55V38.3334H79.5C78.2869 38.3335 77.0884 38.0689 75.9881 37.5581C74.8878 37.0473 73.9122 36.3025 73.1294 35.3757C72.3467 34.4489 71.7756 33.3625 71.456 32.1922C71.1365 31.0219 71.0761 29.796 71.2792 28.6C71.9459 24.5042 75.7959 21.6667 79.9459 21.6667H83.6667V5.00004C83.6667 3.89497 83.2277 2.83516 82.4463 2.05376C81.6649 1.27236 80.6051 0.833374 79.5 0.833374ZM37.8334 50.8334H29.5V42.5H37.8334V50.8334ZM37.8334 34.1667H29.5V25.8334H37.8334V34.1667ZM37.8334 17.5H29.5V9.16671H37.8334V17.5Z" fill="#00B1A9"/>
</svg>
