<svg width="92" height="88" viewBox="0 0 92 88" fill="none" xmlns="http://www.w3.org/2000/svg">
<path d="M79.3333 54.5V67H91.8333V75.3334H79.3333V87.8334H71V75.3334H58.5V67H71V54.5H79.3333ZM91.8333 33.6667L91.6666 34.875L87.6666 49.5C83.8639 47.3119 79.5527 46.162 75.1654 46.1659C70.7781 46.1698 66.4689 47.3272 62.6701 49.5221C58.8713 51.7169 55.7163 54.8721 53.5218 58.6711C51.3272 62.4701 50.1701 66.7794 50.1666 71.1667C50.1666 74.0834 50.7083 76.875 51.625 79.5H18.9166C15.6666 79.5 12.8333 77.625 11.4583 74.9167L0.583293 35.5L0.166626 33.6667C0.166626 31.375 2.04163 29.5 4.33329 29.5H23.4166L42.5833 2.12504C42.9675 1.56618 43.4826 1.10987 44.0837 0.795954C44.6848 0.482038 45.3537 0.320063 46.0318 0.324173C46.71 0.328283 47.3768 0.498353 47.9741 0.819532C48.5714 1.14071 49.0809 1.60323 49.4583 2.1667L68.5833 29.5H87.6666C89.9583 29.5 91.8333 31.375 91.8333 33.6667ZM54.3333 54.5C54.3333 49.9167 50.625 46.1667 46 46.1667C41.375 46.1667 37.6666 49.9167 37.6666 54.5C37.6666 59.0834 41.4166 62.8334 46 62.8334C50.5833 62.8334 54.3333 59.125 54.3333 54.5ZM58.5 29.5L46 11.75L33.5 29.5H58.5Z" fill="#00B1A9"/>
</svg>
